<svg width="200" height="200" viewBox="0 0 200 200" fill="none" xmlns="http://www.w3.org/2000/svg">
  <defs>
    <linearGradient id="paint0_linear" x1="0" y1="200" x2="200" y2="0" gradientUnits="userSpaceOnUse">
      <stop stop-color="#5B84FF"/>
      <stop offset="1" stop-color="#7C3AED"/>
    </linearGradient>
  </defs>
  <rect width="200" height="200" rx="48" fill="url(#paint0_linear)"/>
  <g transform="translate(40, 40) scale(5)">
    <path d="M12 6.253v13m0-13C10.832 5.477 9.246 5 7.5 5S4.168 5.477 3 6.253v13C4.168 18.477 5.754 18 7.5 18s3.332.477 4.5 1.253m0-13C13.168 5.477 14.754 5 16.5 5c1.747 0 3.332.477 4.5 1.253v13C19.832 18.477 18.247 18 16.5 18c-1.746 0-3.332.477-4.5 1.253" stroke="white" stroke-width="2" stroke-linecap="round" stroke-linejoin="round"/>
  </g>
</svg>
